<?xml version="1.0" encoding="UTF-8"?>
<svg id="Layer_1" data-name="Layer 1" xmlns="http://www.w3.org/2000/svg" viewBox="0 0 1026.14 248.76">
  <defs>
    <style>
      .cls-1 {
        fill: #f96800;
      }

      .cls-1, .cls-2 {
        stroke-width: 0px;
      }

      .cls-2 {
        fill: #fff;
      }
    </style>
  </defs>
  <path class="cls-2" d="M286.12,126.77h-2.59v-7.96h.71c11.13,0,19.49-3.98,25.06-11.93,5.57-7.96,8.35-20.44,8.35-37.46v-21.21c0-14.8-3.69-26.52-11.06-35.14-7.38-8.62-17.57-12.93-30.59-12.93H0v248.61h277.65c13.18,0,23.65-4.47,31.41-13.42,7.77-8.95,11.65-21.71,11.65-38.29v-22.87c0-31.6-11.53-47.4-34.59-47.4ZM86.82,60.48h140c2.51,0,3.77,1.77,3.77,5.3v24.2c0,3.54-1.26,5.3-3.77,5.3H86.82v-34.81ZM233.65,183.12c0,3.54-1.26,5.3-3.77,5.3H86.82v-38.12h143.06c2.51,0,3.77,1.77,3.77,5.3v27.51Z"/>
  <path class="cls-1" d="M1016.48,103.78c-6.44-7.97-16.58-11.96-30.42-11.96l-165.3.05c-11.69,0-16.51,5.54-22.6,11.87-3.3,3.43-16.77,18.31-16.77,18.31v-42.05c0-1.7.24-4.3,2.19-6.43,3.83-4.19,8.52-9.41,11.86-13,1.88-2.02,2.95-2.83,4.91-2.83h162.24c9.3,0,12.1-1.69,21.88-12.37,14.8-16.16,39.88-45.06,39.88-45.06l-250.62.04c-12.71,0-15.4,2.07-24.49,11.99-4.64,5.05-16.15,16.9-29.1,31.55-10.66,12.06-9.84,16.35-9.84,24.24l.1,126.1c0,17.25,3.5,30.63,10.5,40.13,7,9.5,16.86,14.25,29.57,14.25h235.6c12.87,0,22.77-4.75,29.69-14.25,6.92-9.5,10.38-22.87,10.38-40.13v-52.61c0-17.25-3.22-29.86-9.66-37.83ZM952.03,186.36c0,1.53-.32,2.73-.96,3.6-.65.88-1.53,1.31-2.65,1.31h-163.56c-1.13,0-2.01-.44-2.65-1.31-.65-.87-.97-2.07-.97-3.6,0,0,.11-1.49.15-5.43.05-4.14-.54-5.35,1.62-7.72,3.04-3.34,9.68-10.59,14.06-15.04,4.89-4.97,7.09-6.93,10.21-6.93l141.86-.24c1.93,0,2.9,1.31,2.9,3.93v31.43Z"/>
  <path class="cls-2" d="M649.24,14.1c-6.68-9.4-16.22-14.1-28.64-14.1h-244.7c-12.26,0-21.77,4.7-28.52,14.1-6.75,9.4-10.13,22.85-10.13,40.34v139.72c0,17.27,3.38,30.67,10.13,40.18,6.75,9.51,16.26,14.27,28.52,14.27h244.7c12.42,0,21.96-4.76,28.64-14.27,6.67-9.51,10.01-22.9,10.01-40.18V54.45c0-17.49-3.34-30.94-10.01-40.34ZM573.1,168.91c0,1.53-.35,2.74-1.05,3.61-.7.88-1.59,1.31-2.68,1.31h-142.49c-1.09,0-1.98-.44-2.68-1.31-.7-.87-1.05-2.07-1.05-3.61v-89.21c0-1.53.35-2.73,1.05-3.61.7-.87,1.59-1.31,2.68-1.31h142.49c1.08,0,1.98.44,2.68,1.31.7.88,1.05,2.08,1.05,3.61v89.21Z"/>
</svg>